<svg width="47" height="47" viewBox="0 0 47 47" fill="none" xmlns="http://www.w3.org/2000/svg">
<path d="M11.75 3.91675C17.0179 3.91675 21.5886 6.88754 23.8857 11.2429C26.1907 7.99596 29.982 5.87508 34.2708 5.87508H41.125V10.7709C41.125 17.8013 35.4262 23.5001 28.3958 23.5001H25.4583V25.4584H35.25V39.1667C35.25 41.3307 33.4972 43.0834 31.3333 43.0834H15.6666C13.5027 43.0834 11.75 41.3307 11.75 39.1667V25.4584H21.5416V21.5417H17.625C10.054 21.5417 3.91663 15.4043 3.91663 7.83341V3.91675H11.75ZM31.3333 29.3751H15.6666V39.1667H31.3333V29.3751ZM37.2083 9.79175H34.2708C29.4043 9.79175 25.4583 13.7378 25.4583 18.6042V19.5834H28.3958C33.2622 19.5834 37.2083 15.6374 37.2083 10.7709V9.79175ZM11.75 7.83341H7.83329C7.83329 13.2404 12.218 17.6251 17.625 17.6251H21.5416C21.5416 12.2181 17.1569 7.83341 11.75 7.83341Z" fill="white"/>
</svg>
