<svg width="49" height="49" viewBox="0 0 49 49" fill="none" xmlns="http://www.w3.org/2000/svg">
<path d="M10.2083 18.3749C10.7498 18.3749 11.2691 18.59 11.652 18.9729C12.0349 19.3558 12.25 19.8751 12.25 20.4166C15.4577 20.4119 18.573 21.491 21.0904 23.4791H25.5208C28.2423 23.4791 30.6862 24.6633 32.3685 26.5416H38.7916C40.7215 26.5411 42.6121 27.0876 44.244 28.1178C45.8759 29.1481 47.1823 30.6198 48.0118 32.3624C43.1833 38.7344 35.3657 42.8749 26.5416 42.8749C20.8454 42.8749 16.027 41.6438 12.1275 39.4898C11.9846 39.884 11.7237 40.2245 11.3802 40.4649C11.0368 40.7053 10.6275 40.834 10.2083 40.8332H4.08329C3.54181 40.8332 3.0225 40.6181 2.63962 40.2353C2.25673 39.8524 2.04163 39.3331 2.04163 38.7916V20.4166C2.04163 19.8751 2.25673 19.3558 2.63962 18.9729C3.0225 18.59 3.54181 18.3749 4.08329 18.3749H10.2083ZM12.252 24.4999L12.25 34.7532L12.3418 34.8185C16.0066 37.391 20.78 38.7916 26.5416 38.7916C32.6748 38.7916 38.3813 36.4314 42.5381 32.4012L42.8096 32.1296L42.5646 31.9255C41.6006 31.1704 40.4319 30.7223 39.2102 30.6392L38.7916 30.6249H34.4817C34.6287 31.2823 34.7083 31.9642 34.7083 32.6666V34.7082H16.3333V30.6249L30.1962 30.6229L30.1268 30.4636C29.7355 29.646 29.1337 28.9473 28.383 28.4392C27.6324 27.9312 26.7601 27.6321 25.8556 27.5726L25.5208 27.5624H19.5387C18.59 26.5921 17.4568 25.8212 16.2057 25.2953C14.9547 24.7694 13.6111 24.4989 12.254 24.4999H12.252ZM8.16663 22.4583H6.12496V36.7499H8.16663V22.4583ZM36.75 10.2083C38.3744 10.2083 39.9323 10.8536 41.081 12.0022C42.2297 13.1509 42.875 14.7088 42.875 16.3333C42.875 17.9577 42.2297 19.5156 41.081 20.6643C39.9323 21.8129 38.3744 22.4583 36.75 22.4583C35.1255 22.4583 33.5676 21.8129 32.4189 20.6643C31.2703 19.5156 30.625 17.9577 30.625 16.3333C30.625 14.7088 31.2703 13.1509 32.4189 12.0022C33.5676 10.8536 35.1255 10.2083 36.75 10.2083ZM36.75 14.2916C36.2085 14.2916 35.6892 14.5067 35.3063 14.8896C34.9234 15.2725 34.7083 15.7918 34.7083 16.3333C34.7083 16.8747 34.9234 17.394 35.3063 17.7769C35.6892 18.1598 36.2085 18.3749 36.75 18.3749C37.2914 18.3749 37.8108 18.1598 38.1936 17.7769C38.5765 17.394 38.7916 16.8747 38.7916 16.3333C38.7916 15.7918 38.5765 15.2725 38.1936 14.8896C37.8108 14.5067 37.2914 14.2916 36.75 14.2916ZM22.4583 4.08325C24.0827 4.08325 25.6407 4.72856 26.7893 5.87722C27.938 7.02588 28.5833 8.5838 28.5833 10.2083C28.5833 11.8327 27.938 13.3906 26.7893 14.5393C25.6407 15.6879 24.0827 16.3333 22.4583 16.3333C20.8338 16.3333 19.2759 15.6879 18.1273 14.5393C16.9786 13.3906 16.3333 11.8327 16.3333 10.2083C16.3333 8.5838 16.9786 7.02588 18.1273 5.87722C19.2759 4.72856 20.8338 4.08325 22.4583 4.08325V4.08325ZM22.4583 8.16658C21.9168 8.16658 21.3975 8.38169 21.0146 8.76458C20.6317 9.14746 20.4166 9.66677 20.4166 10.2083C20.4166 10.7497 20.6317 11.269 21.0146 11.6519C21.3975 12.0348 21.9168 12.2499 22.4583 12.2499C22.9998 12.2499 23.5191 12.0348 23.902 11.6519C24.2849 11.269 24.5 10.7497 24.5 10.2083C24.5 9.66677 24.2849 9.14746 23.902 8.76458C23.5191 8.38169 22.9998 8.16658 22.4583 8.16658V8.16658Z" fill="white"/>
</svg>
